<svg width="0" height="0" class="hidden">
  <symbol fill="none" xmlns="http://www.w3.org/2000/svg" viewBox="0 0 18 18" id="dribbble">
    <path fill-rule="evenodd" clip-rule="evenodd" d="M17.5333 8.98818C17.5333 9.56527 17.4746 10.1416 17.3592 10.7033C17.2467 11.2517 17.08 11.7901 16.8617 12.3048C16.6483 12.8104 16.3837 13.2976 16.0745 13.752C15.77 14.2035 15.4191 14.627 15.0337 15.0131C14.6474 15.3976 14.2224 15.7475 13.7711 16.0534C13.3152 16.3604 12.8273 16.6246 12.3215 16.8389C11.806 17.0561 11.2664 17.2226 10.7184 17.3349C10.1559 17.4506 9.57755 17.5096 8.99962 17.5096C8.42126 17.5096 7.8429 17.4506 7.28121 17.3349C6.73244 17.2226 6.19283 17.0561 5.67779 16.8389C5.17195 16.6246 4.68357 16.3604 4.22772 16.0534C3.77645 15.7475 3.35143 15.3976 2.96599 15.0131C2.58015 14.627 2.22928 14.2035 1.92427 13.752C1.61675 13.2976 1.35172 12.8104 1.13755 12.3048C0.919183 11.7901 0.752114 11.2517 0.639188 10.7033C0.525025 10.1416 0.466675 9.56527 0.466675 8.98818C0.466675 8.41065 0.524992 7.83313 0.639221 7.27261C0.752147 6.7242 0.919216 6.18496 1.13759 5.67111C1.35175 5.16516 1.61678 4.67751 1.9243 4.22313C2.22931 3.77127 2.58018 3.3485 2.96602 2.96195C3.35146 2.57746 3.77648 2.2284 4.22775 1.923C4.6836 1.61466 5.17198 1.35047 5.67783 1.13575C6.19286 0.918096 6.73244 0.751269 7.28124 0.639772C7.84294 0.524941 8.4213 0.466675 8.99966 0.466675C9.57758 0.466675 10.1559 0.524941 10.7185 0.639772C11.2664 0.751302 11.806 0.918129 12.3215 1.13575C12.8273 1.35044 13.3153 1.61466 13.7711 1.923C14.2224 2.2284 14.6475 2.57746 15.0337 2.96195C15.4191 3.3485 15.77 3.77127 16.0746 4.22313C16.3837 4.67751 16.6483 5.16519 16.8617 5.67111C17.08 6.18496 17.2467 6.7242 17.3592 7.27261C17.4746 7.83313 17.5333 8.41065 17.5333 8.98818ZM5.89026 2.40605C3.85805 3.36433 2.34131 5.23422 1.86836 7.48775C2.06048 7.48942 5.0973 7.52771 8.59622 6.59938C7.33492 4.36166 5.98735 2.53549 5.89026 2.40605ZM9.2 7.71995C5.44774 8.84169 1.84711 8.76097 1.71795 8.75601C1.71585 8.83422 1.71211 8.90993 1.71211 8.98817C1.71211 10.8576 2.41839 12.5619 3.57929 13.8506C3.57678 13.8468 5.57108 10.3138 9.50377 9.04393C9.59876 9.01232 9.69546 8.984 9.79128 8.95655C9.60838 8.54298 9.40875 8.12855 9.2 7.71995ZM13.8124 3.52659C12.5293 2.39689 10.8447 1.71164 8.9996 1.71164C8.40748 1.71164 7.83286 1.78321 7.28242 1.91552C7.39157 2.062 8.76042 3.87529 10.0067 6.16041C12.7565 5.13103 13.7944 3.55321 13.8124 3.52659ZM10.288 10.1624C10.2718 10.1677 10.2556 10.1724 10.2397 10.1782C5.93997 11.675 4.53583 14.6914 4.52064 14.7244C5.75781 15.6851 7.30956 16.2647 8.99965 16.2647C10.0088 16.2647 10.9701 16.0595 11.8448 15.688C11.7368 15.0522 11.3135 12.8237 10.288 10.1624ZM13.0719 15.0231C14.7082 13.9205 15.8703 12.1696 16.1945 10.1415C16.0445 10.0933 14.0057 9.44874 11.6535 9.82531C12.6093 12.4484 12.9977 14.5846 13.0719 15.0231ZM10.5676 7.24475C10.7368 7.59178 10.9006 7.94498 11.0518 8.29995C11.1056 8.42729 11.1581 8.55212 11.2093 8.67693C13.7128 8.36235 16.1792 8.89161 16.2846 8.91323C16.2679 7.18815 15.65 5.60493 14.6275 4.36543C14.6137 4.38494 13.4449 6.07136 10.5676 7.24475Z" fill="white"></path>
  </symbol>
  <symbol fill="none" xmlns="http://www.w3.org/2000/svg" viewBox="0 0 18 18" id="instagram">
    <path fill-rule="evenodd" clip-rule="evenodd" d="M9.00081 0.466675C6.68327 0.466675 6.39243 0.476808 5.48219 0.518231C4.57374 0.559831 3.95364 0.703655 3.41106 0.914679C2.84981 1.13264 2.37372 1.4242 1.8994 1.89869C1.42473 2.37301 1.13317 2.8491 0.914502 3.41017C0.702944 3.95293 0.558942 4.57321 0.518053 5.4813C0.477342 6.39154 0.466675 6.68256 0.466675 9.0001C0.466675 11.3176 0.476986 11.6076 0.518231 12.5178C0.560009 13.4263 0.703833 14.0464 0.914679 14.589C1.13282 15.1502 1.42437 15.6263 1.89887 16.1006C2.37301 16.5753 2.8491 16.8676 3.40999 17.0855C3.95293 17.2965 4.57321 17.4404 5.48148 17.482C6.39171 17.5234 6.68238 17.5335 8.99974 17.5335C11.3175 17.5335 11.6074 17.5234 12.5176 17.482C13.4261 17.4404 14.0469 17.2965 14.5898 17.0855C15.1509 16.8676 15.6263 16.5753 16.1004 16.1006C16.5751 15.6263 16.8667 15.1502 17.0853 14.5891C17.2951 14.0464 17.4391 13.4261 17.4818 12.518C17.5227 11.6078 17.5333 11.3176 17.5333 9.0001C17.5333 6.68256 17.5227 6.39171 17.4818 5.48148C17.4391 4.57303 17.2951 3.95293 17.0853 3.41035C16.8667 2.8491 16.5751 2.37301 16.1004 1.89869C15.6258 1.42402 15.1511 1.13246 14.5893 0.914679C14.0453 0.703655 13.4249 0.559831 12.5164 0.518231C11.6062 0.476808 11.3164 0.466675 8.99814 0.466675H9.00081ZM8.23525 2.00444C8.46245 2.00409 8.71597 2.00444 9.00077 2.00444C11.2792 2.00444 11.5492 2.01262 12.449 2.05351C13.281 2.09156 13.7326 2.23058 14.0334 2.34738C14.4316 2.50205 14.7155 2.68694 15.014 2.98561C15.3127 3.28428 15.4976 3.56873 15.6526 3.96695C15.7694 4.2674 15.9086 4.71896 15.9464 5.55097C15.9873 6.45054 15.9962 6.72076 15.9962 8.99812C15.9962 11.2755 15.9873 11.5457 15.9464 12.4453C15.9084 13.2773 15.7694 13.7288 15.6526 14.0293C15.4979 14.4275 15.3127 14.7111 15.014 15.0096C14.7153 15.3082 14.4318 15.4931 14.0334 15.6478C13.7329 15.7651 13.281 15.9038 12.449 15.9418C11.5494 15.9827 11.2792 15.9916 9.00077 15.9916C6.72217 15.9916 6.45212 15.9827 5.55256 15.9418C4.72055 15.9034 4.26899 15.7644 3.96801 15.6476C3.56978 15.4929 3.28533 15.3081 2.98666 15.0094C2.68799 14.7107 2.5031 14.427 2.34808 14.0286C2.23128 13.7281 2.09208 13.2766 2.05421 12.4446C2.01332 11.545 2.00514 11.2748 2.00514 8.99598C2.00514 6.7172 2.01332 6.4484 2.05421 5.54884C2.09226 4.71683 2.23128 4.26527 2.34808 3.96447C2.50275 3.56624 2.68799 3.28179 2.98666 2.98312C3.28533 2.68445 3.56978 2.49956 3.96801 2.34454C4.26881 2.2272 4.72055 2.08853 5.55256 2.05031C6.33977 2.01476 6.64484 2.00409 8.23525 2.00231V2.00444ZM13.5558 3.42135C12.9905 3.42135 12.5318 3.87949 12.5318 4.44501C12.5318 5.01035 12.9905 5.46902 13.5558 5.46902C14.1212 5.46902 14.5799 5.01035 14.5799 4.44501C14.5799 3.87967 14.1212 3.42135 13.5558 3.42135ZM9.00082 4.61781C6.58071 4.61781 4.61855 6.57996 4.61855 9.00007C4.61855 11.4202 6.58071 13.3815 9.00082 13.3815C11.4209 13.3815 13.3824 11.4202 13.3824 9.00007C13.3824 6.57996 11.4209 4.61781 9.00082 4.61781ZM9.00079 6.1556C10.5717 6.1556 11.8453 7.42903 11.8453 9.00007C11.8453 10.5709 10.5717 11.8445 9.00079 11.8445C7.42975 11.8445 6.15632 10.5709 6.15632 9.00007C6.15632 7.42903 7.42975 6.1556 9.00079 6.1556Z" fill="white"></path>
  </symbol>
  <symbol fill="none" xmlns="http://www.w3.org/2000/svg" viewBox="0 0 16 14" id="twitter">
    <path fill-rule="evenodd" clip-rule="evenodd" d="M7.5208 4.00498L7.55438 4.55861L6.99479 4.49082C4.95791 4.23095 3.17843 3.34965 1.66756 1.86952L0.928908 1.13511L0.73865 1.67744C0.33575 2.88641 0.593158 4.16316 1.43253 5.02186C1.8802 5.4964 1.77948 5.5642 1.00725 5.28173C0.73865 5.19134 0.503625 5.12355 0.481242 5.15744C0.4029 5.23653 0.6715 6.26472 0.884142 6.67147C1.17513 7.2364 1.76828 7.79004 2.4174 8.1177L2.96579 8.37757L2.31668 8.38887C1.68994 8.38887 1.66756 8.40017 1.73471 8.63744C1.95854 9.37186 2.84268 10.1515 3.82755 10.4904L4.52143 10.7277L3.91708 11.0893C3.02175 11.609 1.96973 11.9028 0.917717 11.9254C0.414092 11.9367 0 11.9819 0 12.0158C0 12.1287 1.36538 12.7615 2.15999 13.01C4.54382 13.7445 7.37531 13.4281 9.50173 12.1739C11.0126 11.2813 12.5235 9.50744 13.2286 7.79004C13.6091 6.87485 13.9896 5.20264 13.9896 4.40043C13.9896 3.88069 14.0232 3.8129 14.6499 3.19147C15.0192 2.82991 15.3662 2.43446 15.4333 2.32147C15.5452 2.1068 15.534 2.1068 14.9633 2.29887C14.012 2.63783 13.8777 2.59264 14.3477 2.0842C14.6947 1.72264 15.1088 1.06732 15.1088 0.875237C15.1088 0.841341 14.9409 0.897835 14.7506 0.999523C14.5492 1.11251 14.1015 1.28199 13.7658 1.38368L13.1614 1.57576L12.613 1.2029C12.3108 0.999523 11.8856 0.773549 11.6617 0.705757C11.0909 0.547575 10.218 0.570172 9.70318 0.750952C8.30422 1.25939 7.42008 2.57004 7.5208 4.00498Z" fill="white"></path>
  </symbol>
  <symbol fill="none" xmlns="http://www.w3.org/2000/svg" viewBox="0 0 18 13" id="youtube">
    <path fill-rule="evenodd" clip-rule="evenodd" d="M15.6677 0.49952C16.4021 0.70103 16.9804 1.29478 17.1767 2.04878C17.5333 3.41533 17.5333 6.26663 17.5333 6.26663C17.5333 6.26663 17.5333 9.11784 17.1767 10.4845C16.9804 11.2385 16.4021 11.8322 15.6677 12.0338C14.3369 12.4 9.00001 12.4 9.00001 12.4C9.00001 12.4 3.66309 12.4 2.33218 12.0338C1.59783 11.8322 1.0195 11.2385 0.823232 10.4845C0.466675 9.11784 0.466675 6.26663 0.466675 6.26663C0.466675 6.26663 0.466675 3.41533 0.823232 2.04878C1.0195 1.29478 1.59783 0.70103 2.33218 0.49952C3.66309 0.133301 9.00001 0.133301 9.00001 0.133301C9.00001 0.133301 14.3369 0.133301 15.6677 0.49952ZM7.40002 3.86658V9.19991L11.6667 6.53335L7.40002 3.86658Z" fill="white"></path>
  </symbol>
</svg>